<?xml version="1.0" standalone="no"?>
<!DOCTYPE svg PUBLIC "-//W3C//DTD SVG 20010904//EN"
 "http://www.w3.org/TR/2001/REC-SVG-20010904/DTD/svg10.dtd">
<svg version="1.0" xmlns="http://www.w3.org/2000/svg"
 width="133.000000pt" height="132.000000pt" viewBox="0 0 133.000000 132.000000"
 preserveAspectRatio="xMidYMid meet">
<metadata>
Created by potrace 1.15, written by Peter Selinger 2001-2017
</metadata>
<g transform="translate(0.000000,132.000000) scale(0.100000,-0.100000)"
fill="#000000" stroke="none">
<path d="M639 1270 c-232 -36 -415 -228 -442 -465 l-6 -50 22 65 c75 222 248
350 472 350 239 0 432 -158 482 -394 31 -151 -13 -306 -122 -425 -59 -65 -9
-33 56 36 267 280 152 740 -216 861 -74 25 -172 33 -246 22z"/>
<path d="M236 1098 c-93 -95 -137 -169 -166 -284 -93 -364 149 -721 523 -773
192 -27 375 36 517 179 107 106 167 230 184 375 6 48 5 46 -22 -30 -33 -97
-66 -155 -127 -223 -147 -163 -400 -229 -610 -158 -230 79 -381 272 -401 514
-12 148 46 316 147 427 77 84 47 66 -45 -27z"/>
<path d="M646 941 c-3 -5 -26 -14 -51 -20 -63 -16 -79 -44 -73 -126 9 -104 86
-224 155 -241 22 -6 23 -11 23 -88 0 -98 -24 -151 -82 -179 -32 -16 -40 -16
-70 -4 -68 29 -97 90 -98 208 0 72 1 76 26 87 30 14 57 73 48 107 -8 33 -59
75 -90 75 -99 0 -138 -123 -57 -175 32 -20 32 -21 33 -100 0 -103 13 -147 56
-195 61 -67 133 -76 201 -24 52 40 76 96 81 194 l5 85 48 23 c48 23 54 30 107
137 33 66 36 155 7 184 -26 25 -119 61 -135 51 -7 -4 -10 -16 -8 -26 2 -14 16
-21 53 -26 63 -9 79 -28 71 -88 -14 -106 -94 -200 -168 -200 -80 0 -168 112
-168 214 0 52 24 76 75 76 29 0 55 15 55 32 0 12 -38 29 -44 19z"/>
</g>
</svg>
