<?xml version="1.0" standalone="no"?>
<!DOCTYPE svg PUBLIC "-//W3C//DTD SVG 20010904//EN"
 "http://www.w3.org/TR/2001/REC-SVG-20010904/DTD/svg10.dtd">
<svg version="1.0" xmlns="http://www.w3.org/2000/svg"
 width="1600.000000pt" height="1600.000000pt" viewBox="0 0 1600.000000 1600.000000"
 preserveAspectRatio="xMidYMid meet">
<metadata>
Created by potrace 1.15, written by Peter Selinger 2001-2017
</metadata>
<g transform="translate(0.000000,1600.000000) scale(0.100000,-0.100000)"
fill="#000000" stroke="none">
<path d="M6529 15975 c-734 -160 -1345 -709 -1583 -1425 -87 -262 -116 -450
-116 -761 l0 -209 -1223 0 c-835 0 -1242 -3 -1283 -11 -190 -35 -357 -158
-440 -324 -61 -124 -64 -143 -64 -527 l0 -348 -305 0 -305 0 0 -610 0 -610
605 0 605 0 0 -4579 c0 -3112 3 -4612 10 -4682 87 -858 766 -1544 1622 -1638
133 -15 7525 -15 7653 -1 369 43 706 189 993 433 364 308 594 763 632 1250 6
74 10 1894 10 4670 l0 4547 605 0 605 0 -2 608 -3 607 -302 3 -302 2 -3 363
c-3 350 -4 364 -26 427 -56 154 -167 282 -305 350 -148 73 -81 70 -1448 70
l-1227 0 -5 248 c-7 340 -44 548 -143 800 -271 694 -859 1201 -1562 1347
l-117 25 -1235 -1 -1235 -1 -106 -23z m2349 -1215 c297 -31 557 -212 693 -482
77 -153 108 -324 109 -590 l0 -108 -1801 0 -1802 0 6 203 c4 172 9 216 30 297
99 378 392 640 762 680 106 11 1894 11 2003 0z m-998 -3620 c558 0 1741 2
2628 5 l1612 6 -2 -4603 c-3 -4445 -4 -4605 -21 -4658 -66 -195 -196 -331
-378 -398 l-74 -27 -3740 -3 c-3705 -2 -3741 -2 -3819 18 -215 54 -385 230
-431 446 -13 60 -15 678 -15 4647 l0 4578 1613 -6 c886 -3 2069 -5 2627 -5z"/>
<path d="M4850 6300 l0 -3640 605 0 605 0 0 3640 0 3640 -605 0 -605 0 0
-3640z"/>
<path d="M7270 6300 l0 -3640 608 2 607 3 3 3638 2 3637 -610 0 -610 0 0
-3640z"/>
<path d="M9692 6303 l3 -3638 608 -3 607 -2 0 3640 0 3640 -610 0 -610 0 2
-3637z"/>
</g>
</svg>
